<svg 
 xmlns="http://www.w3.org/2000/svg"
 xmlns:xlink="http://www.w3.org/1999/xlink"
 width="46px" height="39px">
<path fill-rule="evenodd"  fill="rgb(255, 255, 255)"
 d="M32.545,2.000 C38.872,2.000 44.000,7.090 44.000,13.368 C44.000,24.737 26.883,37.000 23.000,37.000 C19.117,37.000 2.000,24.737 2.000,13.368 C2.000,7.090 7.128,2.000 13.455,2.000 C17.441,2.000 20.948,4.023 23.000,7.089 C25.052,4.023 28.559,2.000 32.545,2.000 M32.545,-0.000 C28.919,-0.000 25.502,1.442 23.000,3.950 C20.498,1.442 17.081,-0.000 13.455,-0.000 C6.036,-0.000 -0.000,5.997 -0.000,13.368 C-0.000,25.969 18.139,39.000 23.000,39.000 C27.861,39.000 46.000,25.969 46.000,13.368 C46.000,5.997 39.964,-0.000 32.545,-0.000 L32.545,-0.000 Z"/>
</svg>