<svg 
 xmlns="http://www.w3.org/2000/svg"
 xmlns:xlink="http://www.w3.org/1999/xlink"
 width="38px" height="26px">
<path fill-rule="evenodd"  fill="rgb(255, 255, 255)"
 d="M37.000,14.000 L1.000,14.000 C0.448,14.000 -0.000,13.552 -0.000,13.000 C-0.000,12.448 0.448,12.000 1.000,12.000 L37.000,12.000 C37.552,12.000 38.000,12.448 38.000,13.000 C38.000,13.552 37.552,14.000 37.000,14.000 ZM37.000,2.000 L1.000,2.000 C0.448,2.000 -0.000,1.552 -0.000,1.000 C-0.000,0.448 0.448,0.000 1.000,0.000 L37.000,0.000 C37.552,0.000 38.000,0.448 38.000,1.000 C38.000,1.552 37.552,2.000 37.000,2.000 ZM1.000,24.000 L37.000,24.000 C37.552,24.000 38.000,24.448 38.000,25.000 C38.000,25.552 37.552,26.000 37.000,26.000 L1.000,26.000 C0.448,26.000 -0.000,25.552 -0.000,25.000 C-0.000,24.448 0.448,24.000 1.000,24.000 Z"/>
</svg>